<svg id="图层_1" data-name="图层 1" xmlns="http://www.w3.org/2000/svg" viewBox="0 0 50 50"><defs><style>.cls-1{opacity:0.1;}.cls-2{fill:#292b33;}.cls-3{opacity:0.4;}</style></defs><title>图标 操作 附加图片</title><g class="cls-1"><path class="cls-2" d="M48,1a1,1,0,0,1,1,1V48a1,1,0,0,1-1,1H2a1,1,0,0,1-1-1V2A1,1,0,0,1,2,1H48m0-1H2A2,2,0,0,0,0,2V48a2,2,0,0,0,2,2H48a2,2,0,0,0,2-2V2a2,2,0,0,0-2-2Z"/></g><g class="cls-3"><path class="cls-2" d="M34,32a2.08,2.08,0,0,1-2,2H18a2.08,2.08,0,0,1-2-2V18a2.08,2.08,0,0,1,2-2H32a2.08,2.08,0,0,1,2,2ZM21.48,26.5,18,31H32l-4.5-6L24,29.5Z"/></g></svg>