<svg id="图层_1" data-name="图层 1" xmlns="http://www.w3.org/2000/svg" viewBox="0 0 20 20"><defs><style>.cls-1{fill:#fff;}</style></defs><title>图标 课程 收藏已收藏 </title><path class="cls-1" d="M16.74,3.3A4.18,4.18,0,0,0,13.61,2,4.48,4.48,0,0,0,10,3.73,4.48,4.48,0,0,0,6.39,2,4.18,4.18,0,0,0,3.26,3.3,4.41,4.41,0,0,0,2,6.49,6,6,0,0,0,3,9.6,15.84,15.84,0,0,0,5.1,12.4Q6.24,13.59,8.84,16L10,17l1.16-1.07q2-1.84,2.89-2.72t2-2.19a8.69,8.69,0,0,0,1.52-2.36A5.91,5.91,0,0,0,18,6.49,4.42,4.42,0,0,0,16.74,3.3Z"/></svg>