<svg xmlns="http://www.w3.org/2000/svg" viewBox="0 0 24 24"><defs><style>.cls-1{opacity:0.8;}</style></defs><title>图标 底部导航2 选中</title><g id="图层_2_复制" data-name="图层 2_复制"><g class="cls-1"><path d="M17.21,17.5H5A1.5,1.5,0,0,1,3.5,16V6A1.5,1.5,0,0,1,5,4.5H19A1.5,1.5,0,0,1,20.5,6V20.79ZM16,9.5A1.5,1.5,0,1,0,17.5,11,1.5,1.5,0,0,0,16,9.5Zm-4,0A1.5,1.5,0,1,0,13.5,11,1.5,1.5,0,0,0,12,9.5Zm-4,0A1.5,1.5,0,1,0,9.5,11,1.5,1.5,0,0,0,8,9.5Z"/><path d="M19,5a1,1,0,0,1,1,1V19.59l-2.29-2.29L17.41,17H5a1,1,0,0,1-1-1V6A1,1,0,0,1,5,5H19m-3,8a2,2,0,1,0-2-2,2,2,0,0,0,2,2m-4,0a2,2,0,1,0-2-2,2,2,0,0,0,2,2M8,13a2,2,0,1,0-2-2,2,2,0,0,0,2,2M19,4H5A2,2,0,0,0,3,6V16a2,2,0,0,0,2,2H17l3.15,3.15a.49.49,0,0,0,.35.15.5.5,0,0,0,.5-.5V6a2,2,0,0,0-2-2Zm-3,8a1,1,0,1,1,1-1,1,1,0,0,1-1,1Zm-4,0a1,1,0,1,1,1-1,1,1,0,0,1-1,1ZM8,12a1,1,0,1,1,1-1,1,1,0,0,1-1,1Z"/></g></g></svg>