<svg xmlns="http://www.w3.org/2000/svg" viewBox="0 0 24 24"><defs><style>.cls-1{fill:#292b33;opacity:0.6;}</style></defs><title>图标 设置 二维码</title><g id="图层_2_复制" data-name="图层 2_复制"><path class="cls-1" d="M3,3v8h8V3ZM9,9H5V5H9Z"/><polygon class="cls-1" points="21 18 16 18 16 16 15 16 15 21 13 21 13 13 18 13 18 15 19 15 19 13 21 13 21 18"/><rect class="cls-1" x="16" y="19" width="2" height="2"/><rect class="cls-1" x="19" y="19" width="2" height="2"/><rect class="cls-1" x="6" y="6" width="2" height="2"/><path class="cls-1" d="M13,3v8h8V3Zm6,6H15V5h4Z"/><rect class="cls-1" x="16" y="6" width="2" height="2"/><path class="cls-1" d="M3,13v8h8V13Zm6,6H5V15H9Z"/><rect class="cls-1" x="6" y="16" width="2" height="2"/></g></svg>