<svg id="图层_2" data-name="图层 2" xmlns="http://www.w3.org/2000/svg" viewBox="0 0 24 24"><defs><style>.cls-1{opacity:0.4;}</style></defs><title>图标 底部导航4</title><g class="cls-1"><path d="M12,5a2.8,2.8,0,0,1,2.09.89A2.92,2.92,0,0,1,15,8a2.84,2.84,0,0,1-.88,2.1,3,3,0,0,1-4.2,0A2.84,2.84,0,0,1,9,8a2.92,2.92,0,0,1,.88-2.13A2.8,2.8,0,0,1,12,5m0,10a13.18,13.18,0,0,1,4.89,1C18.29,16.6,19,17.26,19,18v1H5V18c0-.73.71-1.39,2.11-1.95A13.18,13.18,0,0,1,12,15M12,4A3.79,3.79,0,0,0,9.19,5.19,3.91,3.91,0,0,0,8,8a3.83,3.83,0,0,0,1.17,2.81,4,4,0,0,0,5.61,0A3.83,3.83,0,0,0,16,8a3.91,3.91,0,0,0-1.17-2.83A3.79,3.79,0,0,0,12,4Zm0,10a14.11,14.11,0,0,0-5.26,1.1Q4,16.21,4,18v2H20V18q0-1.78-2.74-2.88A14.11,14.11,0,0,0,12,14Z"/></g></svg>