<svg xmlns="http://www.w3.org/2000/svg" viewBox="0 0 24 24"><defs><style>.cls-1{opacity:0.8;}</style></defs><title>图标 底部导航4 选中</title><g id="图层_2_复制" data-name="图层 2_复制"><g class="cls-1"><path d="M4.5,19.5V18c0-1,.82-1.77,2.42-2.41A13.67,13.67,0,0,1,12,14.51a13.67,13.67,0,0,1,5.08,1.06C18.68,16.22,19.5,17,19.5,18V19.5Zm7.5-8a3.32,3.32,0,0,1-2.45-1A3.32,3.32,0,0,1,8.52,8a3.39,3.39,0,0,1,1-2.48,3.4,3.4,0,0,1,4.9,0,3.39,3.39,0,0,1,1,2.48,3.32,3.32,0,0,1-1,2.45A3.32,3.32,0,0,1,12,11.5Z"/><path d="M12,5a2.8,2.8,0,0,1,2.09.89A2.92,2.92,0,0,1,15,8a2.84,2.84,0,0,1-.88,2.1,3,3,0,0,1-4.2,0A2.84,2.84,0,0,1,9,8a2.92,2.92,0,0,1,.88-2.13A2.8,2.8,0,0,1,12,5m0,10a13.18,13.18,0,0,1,4.89,1C18.29,16.6,19,17.26,19,18v1H5V18c0-.73.71-1.39,2.11-1.95A13.18,13.18,0,0,1,12,15M12,4A3.79,3.79,0,0,0,9.19,5.19,3.91,3.91,0,0,0,8,8a3.83,3.83,0,0,0,1.17,2.81,4,4,0,0,0,5.61,0A3.83,3.83,0,0,0,16,8a3.91,3.91,0,0,0-1.17-2.83A3.79,3.79,0,0,0,12,4Zm0,10a14.11,14.11,0,0,0-5.26,1.1Q4,16.21,4,18v2H20V18q0-1.78-2.74-2.88A14.11,14.11,0,0,0,12,14Z"/></g></g></svg>