<svg id="图层_2" data-name="图层 2" xmlns="http://www.w3.org/2000/svg" viewBox="0 0 24 24"><defs><style>.cls-1{opacity:0.4;}</style></defs><title>图标 底部导航2</title><g class="cls-1"><path d="M19,5a1,1,0,0,1,1,1V19.59l-2.29-2.29L17.41,17H5a1,1,0,0,1-1-1V6A1,1,0,0,1,5,5H19m0-1H5A2,2,0,0,0,3,6V16a2,2,0,0,0,2,2H17l3.15,3.15a.49.49,0,0,0,.35.15.5.5,0,0,0,.5-.5V6a2,2,0,0,0-2-2Z"/><path d="M8,10a1,1,0,1,0,1,1,1,1,0,0,0-1-1Z"/><path d="M12,10a1,1,0,1,0,1,1,1,1,0,0,0-1-1Z"/><path d="M16,10a1,1,0,1,0,1,1,1,1,0,0,0-1-1Z"/></g></svg>