<svg id="图层_1" data-name="图层 1" xmlns="http://www.w3.org/2000/svg" viewBox="0 0 16 16"><defs><style>.cls-1{fill:#292b33;opacity:0.4;}</style></defs><title>图标 问答 点赞数</title><path class="cls-1" d="M13.9,2.13A3.68,3.68,0,0,0,11.15,1,3.93,3.93,0,0,0,8,2.5,3.93,3.93,0,0,0,4.84,1,3.67,3.67,0,0,0,2.1,2.13,3.81,3.81,0,0,0,1,4.89a5.17,5.17,0,0,0,.85,2.69A13.74,13.74,0,0,0,3.71,10q1,1,3.27,3.09L8,14l1-.93q1.74-1.6,2.53-2.36t1.76-1.9a7.52,7.52,0,0,0,1.33-2A5.08,5.08,0,0,0,15,4.89,3.81,3.81,0,0,0,13.9,2.13ZM13.71,6.4a6.61,6.61,0,0,1-1.16,1.76c-.63.73-1.2,1.35-1.7,1.83s-1.33,1.26-2.51,2.34L8,12.66l-.33-.29C6.17,11,5.08,10,4.43,9.31A12.8,12.8,0,0,1,2.71,7.06,4.22,4.22,0,0,1,2,4.89a2.82,2.82,0,0,1,.82-2.06,2.69,2.69,0,0,1,2-.83A3,3,0,0,1,7.23,3.14l.3.36h.93l.3-.36A3,3,0,0,1,11.15,2a2.69,2.69,0,0,1,2,.83A2.82,2.82,0,0,1,14,4.89,4.11,4.11,0,0,1,13.71,6.4Z"/></svg>