<svg xmlns="http://www.w3.org/2000/svg" viewBox="0 0 24 24"><defs><style>.cls-1{opacity:0.6;}.cls-2{fill:#292b33;}</style></defs><title>图标 设置 清除缓存</title><g id="图层_2_复制" data-name="图层 2_复制"><g class="cls-1"><path class="cls-2" d="M12,19a6.58,6.58,0,0,0,5.44-2.62l2.63,1.55A9.5,9.5,0,0,1,12,22,9.62,9.62,0,0,1,4.95,19,9.62,9.62,0,0,1,2,12a9.62,9.62,0,0,1,2.6-6.73A9.71,9.71,0,0,1,11,2V5A6.87,6.87,0,0,0,6.75,7.38,6.73,6.73,0,0,0,5,12a6.73,6.73,0,0,0,2,4.95A6.73,6.73,0,0,0,12,19ZM13,2a9.71,9.71,0,0,1,6.4,3.21A9.62,9.62,0,0,1,22,12a9.62,9.62,0,0,1-.84,4.08l-2.62-1.55A7.51,7.51,0,0,0,19,12a6.73,6.73,0,0,0-1.73-4.59A6.87,6.87,0,0,0,13,5Z"/></g></g></svg>