<svg id="图层_1" data-name="图层 1" xmlns="http://www.w3.org/2000/svg" viewBox="0 0 16 16"><defs><style>.cls-1{opacity:0.4;}.cls-2{fill:#292b33;}</style></defs><title>图标 问答 点赞数 未点赞</title><g class="cls-1"><path class="cls-2" d="M9.11,1.3a.5.5,0,0,1,.1.48l-.9,2.93A1,1,0,0,0,9.27,6H13a1,1,0,0,1,1,1V8.72L11.43,13H5V5.5a.32.32,0,0,1,.12-.25l4-3.95M9,0,4.42,4.54A1.33,1.33,0,0,0,4,5.5V13a1,1,0,0,0,1,1h6.43a1,1,0,0,0,.86-.49l2.57-4.28A1,1,0,0,0,15,8.72V7a2,2,0,0,0-2-2H9.27l.9-2.93A1.5,1.5,0,0,0,9.57.38L9,0Z"/></g><g class="cls-1"><rect class="cls-2" x="1" y="6" width="1" height="7"/></g></svg>