<svg xmlns="http://www.w3.org/2000/svg" viewBox="0 0 24 24"><defs><style>.cls-1{fill:#292b33;opacity:0.8;}</style></defs><title>图标 操作  单选框选中 </title><g id="图层_2_复制" data-name="图层 2_复制"><path class="cls-1" d="M4.93,4.93A9.63,9.63,0,0,1,12,2a9.63,9.63,0,0,1,7.07,2.93A9.63,9.63,0,0,1,22,12a9.63,9.63,0,0,1-2.93,7.07A9.63,9.63,0,0,1,12,22a9.63,9.63,0,0,1-7.07-2.93A9.63,9.63,0,0,1,2,12,9.63,9.63,0,0,1,4.93,4.93ZM6.34,17.66A7.72,7.72,0,0,0,12,20a7.72,7.72,0,0,0,5.66-2.37A7.72,7.72,0,0,0,20,12a7.72,7.72,0,0,0-2.37-5.66A7.72,7.72,0,0,0,12,4,7.72,7.72,0,0,0,6.34,6.34,7.72,7.72,0,0,0,4,12,7.72,7.72,0,0,0,6.34,17.66Zm2.11-9.2A4.84,4.84,0,0,1,12,7a4.84,4.84,0,0,1,3.54,1.48A4.84,4.84,0,0,1,17,12a4.84,4.84,0,0,1-1.48,3.54A4.84,4.84,0,0,1,12,17a4.84,4.84,0,0,1-3.54-1.48A4.84,4.84,0,0,1,7,12,4.84,4.84,0,0,1,8.46,8.46Z"/></g></svg>