<svg xmlns="http://www.w3.org/2000/svg" viewBox="0 0 24 24"><defs><style>.cls-1{opacity:0.8;}</style></defs><title>图标 底部导航3 选中</title><g id="图层_2_复制" data-name="图层 2_复制"><g class="cls-1"><path d="M12,17.46,5.5,20.24V5A1.47,1.47,0,0,1,5.95,4,1.37,1.37,0,0,1,7,3.5H17a1.37,1.37,0,0,1,1,.46A1.47,1.47,0,0,1,18.5,5V20.24Z"/><path d="M17,4a.87.87,0,0,1,.67.3A1,1,0,0,1,18,5V19.48l-5.61-2.4L12,16.91l-.39.17L6,19.48V5a1,1,0,0,1,.31-.71A.87.87,0,0,1,7,4H17m0-1H7a1.86,1.86,0,0,0-1.39.61A2,2,0,0,0,5,5V20.24a.5.5,0,0,0,.7.46L12,18l6.3,2.7a.5.5,0,0,0,.7-.46V5a2,2,0,0,0-.59-1.41A1.86,1.86,0,0,0,17,3Z"/></g></g></svg>