<svg id="图层_1" data-name="图层 1" xmlns="http://www.w3.org/2000/svg" viewBox="0 0 40 40"><defs><style>.cls-1{opacity:0.6;}.cls-2{fill:#292b33;}</style></defs><title>图标 课程 可播放 </title><g class="cls-1"><path class="cls-2" d="M20,1A19,19,0,1,1,1,20,19,19,0,0,1,20,1m0-1A20,20,0,1,0,40,20,20,20,0,0,0,20,0Z"/></g><g class="cls-1"><path class="cls-2" d="M16,14.82,24.13,20,16,25.18V14.82m-.5-1.41a.5.5,0,0,0-.5.5V26.09a.5.5,0,0,0,.5.5.49.49,0,0,0,.27-.08l9.56-6.09a.5.5,0,0,0,0-.84l-9.56-6.09a.49.49,0,0,0-.27-.08Z"/></g></svg>